# Blender v2.80 (sub 75) OBJ File: 'free grass by adam127.blend'
# www.blender.org
mtllib free grass by adam127.mtl
o free_grass
v -0.192843 0.000000 -1.787765
v 0.192843 0.000000 1.787765
v -0.205069 3.824270 -1.901107
v 0.205069 3.824270 1.901107
v -1.543872 -0.000000 1.128148
v 1.543872 -0.000000 -1.128148
v -1.543873 3.419216 1.128148
v 1.543872 3.419215 -1.128148
v -1.809653 -0.000000 -0.617587
v 1.809653 -0.000000 0.617587
v -1.809654 4.322569 -0.617588
v 1.809654 4.322569 0.617587
vt 1.000000 0.000000
vt 0.000000 1.000000
vt 0.000000 0.000000
vt 1.000000 0.000000
vt 0.000000 1.000000
vt 0.000000 0.000000
vt 1.000000 0.000000
vt 0.000000 1.000000
vt 0.000000 0.000000
vt 1.000000 1.000000
vt 1.000000 1.000000
vt 1.000000 1.000000
vn -0.9942 0.0000 0.1072
vn 0.5900 0.0000 0.8074
vn -0.3230 0.0000 0.9464
usemtl free_grass
s off
f 2/1/1 3/2/1 1/3/1
f 6/4/2 7/5/2 5/6/2
f 10/7/3 11/8/3 9/9/3
f 2/1/1 4/10/1 3/2/1
f 6/4/2 8/11/2 7/5/2
f 10/7/3 12/12/3 11/8/3
